<?xml version="1.0" encoding="utf-8"?>
<!-- Generator: Adobe Illustrator 16.0.0, SVG Export Plug-In . SVG Version: 6.00 Build 0)  -->
<!DOCTYPE svg PUBLIC "-//W3C//DTD SVG 1.1//EN" "http://www.w3.org/Graphics/SVG/1.1/DTD/svg11.dtd">
<svg version="1.1" id="Layer_1" xmlns="http://www.w3.org/2000/svg" xmlns:xlink="http://www.w3.org/1999/xlink" x="0px" y="0px"
	 width="192.334px" height="192.333px" viewBox="0 0 192.334 192.333" enable-background="new 0 0 192.334 192.333"
	 xml:space="preserve">
<rect width="192.334" height="191.043"/>
<g>
	<path d="M142.961,176.848c11.03,0,21.214,0.077,31.391-0.14c0.863-0.018,2.421-2.01,2.418-3.081
		c-0.072-24.079,0.552-48.206-0.736-72.227c-1.947-36.262-38.268-41.852-57.579-30.831c-4.816,2.748-8.832,6.898-13.459,10.601
		c0-4.021,0-8.08,0-12.026c-10.825,0-21.227,0-31.436,0c0,36.065,0,71.767,0,107.46c10.659,0,20.951,0,31.636,0
		c0-1.858,0-3.453,0-5.048c0-16.86-0.281-33.729,0.167-50.578c0.14-5.286,1.46-10.872,3.632-15.694
		c3.125-6.938,9.863-9.073,17.023-8.88c7.309,0.197,12.761,3.797,14.968,10.976c1.153,3.75,1.846,7.79,1.891,11.709
		c0.198,17.302,0.085,34.607,0.085,51.912C142.961,172.746,142.961,174.493,142.961,176.848z M18.331,69.034c0,1.73,0,3.17,0,4.609
		c-0.004,26.764-0.009,53.528-0.01,80.293c-0.001,6.505-0.1,13.016,0.125,19.514c0.04,1.152,1.432,3.221,2.234,3.238
		c10.31,0.221,20.626,0.146,31.237,0.146c0-36.145,0-71.842,0-107.801C40.9,69.034,30.011,69.034,18.331,69.034z M15.476,35.244
		c0,11.628,8.487,20.198,19.988,20.184c10.826-0.014,19.839-8.861,19.953-19.583c0.119-11.269-8.811-20.349-20.031-20.372
		C24.063,15.449,15.477,23.977,15.476,35.244z"/>
	<path fill-rule="evenodd" clip-rule="evenodd" fill="#FFFFFF" d="M142.961,176.848c0-2.355,0-4.103,0-5.848
		c0-17.305,0.113-34.61-0.085-51.912c-0.045-3.919-0.737-7.959-1.891-11.709c-2.208-7.179-7.66-10.778-14.968-10.976
		c-7.16-0.193-13.897,1.941-17.023,8.88c-2.172,4.822-3.492,10.408-3.632,15.694c-0.448,16.85-0.167,33.718-0.167,50.578
		c0,1.595,0,3.189,0,5.048c-10.685,0-20.977,0-31.636,0c0-35.693,0-71.395,0-107.46c10.208,0,20.61,0,31.436,0
		c0,3.946,0,8.006,0,12.026c4.628-3.702,8.643-7.853,13.459-10.601c19.311-11.021,55.631-5.431,57.579,30.831
		c1.288,24.021,0.664,48.147,0.736,72.227c0.003,1.071-1.555,3.063-2.418,3.081C164.175,176.925,153.991,176.848,142.961,176.848z"
		/>
	<path fill-rule="evenodd" clip-rule="evenodd" fill="#FFFFFF" d="M18.331,69.034c11.681,0,22.57,0,33.586,0
		c0,35.959,0,71.656,0,107.801c-10.611,0-20.927,0.074-31.237-0.146c-0.803-0.018-2.195-2.086-2.234-3.238
		c-0.225-6.498-0.126-13.009-0.125-19.514c0.001-26.765,0.006-53.529,0.01-80.293C18.331,72.204,18.331,70.764,18.331,69.034z"/>
	<path fill-rule="evenodd" clip-rule="evenodd" fill="#FFFFFF" d="M15.476,35.244c0.001-11.267,8.588-19.794,19.91-19.772
		c11.221,0.023,20.15,9.104,20.031,20.372c-0.114,10.723-9.127,19.57-19.953,19.583C23.963,55.442,15.476,46.872,15.476,35.244z"/>
</g>
<g>
</g>
<g>
</g>
<g>
</g>
<g>
</g>
<g>
</g>
<g>
</g>
<g>
</g>
<g>
</g>
<g>
</g>
<g>
</g>
<g>
</g>
<g>
</g>
<g>
</g>
<g>
</g>
<g>
</g>
</svg>
