<?xml version="1.0" encoding="utf-8"?>
<!-- Generator: Adobe Illustrator 16.0.0, SVG Export Plug-In . SVG Version: 6.00 Build 0)  -->
<!DOCTYPE svg PUBLIC "-//W3C//DTD SVG 1.1//EN" "http://www.w3.org/Graphics/SVG/1.1/DTD/svg11.dtd">
<svg version="1.1" id="Layer_1" xmlns="http://www.w3.org/2000/svg" xmlns:xlink="http://www.w3.org/1999/xlink" x="0px" y="0px"
	 width="192.334px" height="192.333px" viewBox="0 0 192.334 192.333" enable-background="new 0 0 192.334 192.333"
	 xml:space="preserve">
<rect x="57.667" y="12.667" fill="#FFFFFF" width="115.333" height="179.288"/>
<g>
	<path fill="#FFFFFF" d="M162.062,88.236c0,0.427,0.02,0.62-0.004,0.809c-0.519,4.316-1.022,8.634-1.567,12.946
		c-0.576,4.548-1.205,9.089-1.778,13.638c-0.157,1.249-0.588,1.8-2.036,1.78c-7.173-0.096-14.346-0.007-21.52-0.076
		c-1.462-0.015-1.922,0.331-1.919,1.884c0.054,23.598,0.038,47.195,0.038,70.793c0,1.944,0.002,1.948,1.934,1.948
		c15.238,0,30.474-0.003,45.712-0.004c7.471,0,12.023-4.535,12.023-11.996c0.007-56.397,0.023-112.795-0.013-169.192
		c-0.003-3.244-1.056-6.236-3.545-8.521c-2.392-2.196-5.324-2.95-8.476-2.95C124.909-0.714,68.908-0.711,12.907-0.711
		c-0.495,0-0.99-0.01-1.484,0.003C6.137-0.559,2.008,2.373,0.745,7.103c-0.477,1.787-0.717,3.691-0.718,5.543
		C-0.01,68.4-0.012,124.154,0.04,179.908c0.001,1.728,0.404,3.536,1.002,5.167c1.664,4.532,5.515,6.87,11.026,6.873
		c29.831,0.01,59.662,0.006,89.494,0.002c0.477,0,0.955-0.055,1.356-0.079c0-24.906,0-49.659,0-74.508c-0.729,0-1.319-0.001-1.91,0
		c-7.123,0-14.248-0.04-21.37,0.035c-1.45,0.015-1.838-0.423-1.829-1.833c0.056-8.509,0.056-17.019-0.006-25.527
		c-0.01-1.479,0.406-1.958,1.922-1.942c7.173,0.073,14.347,0.035,21.521,0.031c0.571-0.001,1.143-0.049,1.81-0.079
		c0-4.712-0.021-9.257,0.006-13.802c0.034-5.821-0.277-11.651,0.881-17.427c1.766-8.797,5.669-16.265,13.011-21.708
		c6.302-4.671,13.531-6.785,21.203-6.887c7.792-0.104,15.593,0.555,23.394,0.741c1.717,0.041,2.013,0.647,1.999,2.18
		c-0.07,7.618-0.03,15.237-0.035,22.855c-0.001,1.923-0.011,1.906-1.956,1.934c-6.029,0.086-12.073-0.047-18.083,0.342
		c-6.282,0.407-9.778,4.296-9.938,10.548c-0.167,6.524-0.144,13.054-0.295,19.577c-0.032,1.379,0.355,1.769,1.728,1.759
		c8.311-0.059,16.623-0.032,24.935-0.026C160.582,88.133,161.261,88.196,162.062,88.236z"/>
	<path fill-rule="evenodd" clip-rule="evenodd" d="M162.062,88.236c-0.801-0.04-1.479-0.103-2.156-0.104
		c-8.312-0.006-16.624-0.032-24.935,0.026c-1.373,0.01-1.76-0.38-1.728-1.759c0.151-6.523,0.127-13.053,0.295-19.577
		c0.159-6.252,3.655-10.141,9.938-10.548c6.01-0.389,12.054-0.256,18.083-0.342c1.945-0.027,1.955-0.011,1.956-1.934
		c0.005-7.618-0.035-15.237,0.035-22.855c0.014-1.533-0.282-2.139-1.999-2.18c-7.801-0.186-15.602-0.845-23.394-0.741
		c-7.672,0.102-14.9,2.215-21.203,6.887c-7.342,5.443-11.246,12.912-13.011,21.708c-1.158,5.775-0.847,11.605-0.881,17.427
		c-0.027,4.545-0.006,9.09-0.006,13.802c-0.667,0.03-1.239,0.078-1.81,0.079c-7.174,0.004-14.348,0.042-21.521-0.031
		c-1.517-0.016-1.933,0.463-1.922,1.942c0.062,8.509,0.062,17.019,0.006,25.527c-0.009,1.41,0.379,1.848,1.829,1.833
		c7.123-0.075,14.247-0.035,21.37-0.035c0.591-0.001,1.181,0,1.91,0c0,24.849,0,49.602,0,74.508
		c-0.401,0.024-0.879,0.079-1.356,0.079c-29.832,0.004-59.663,0.008-89.494-0.002c-5.512-0.003-9.362-2.341-11.026-6.873
		c-0.598-1.631-1.001-3.439-1.002-5.167C-0.012,124.154-0.01,68.4,0.027,12.646c0.001-1.852,0.241-3.756,0.718-5.543
		c1.263-4.729,5.392-7.661,10.677-7.811c0.495-0.014,0.989-0.003,1.484-0.003c56.001,0,112.002-0.003,168.004,0.006
		c3.151,0,6.084,0.754,8.476,2.95c2.489,2.285,3.542,5.277,3.545,8.521c0.036,56.397,0.02,112.794,0.013,169.192
		c0,7.461-4.553,11.996-12.023,11.996c-15.238,0.001-30.475,0.004-45.712,0.004c-1.932,0-1.934-0.004-1.934-1.948
		c0-23.598,0.016-47.195-0.038-70.793c-0.003-1.553,0.457-1.898,1.919-1.884c7.174,0.069,14.347-0.02,21.52,0.076
		c1.448,0.02,1.879-0.531,2.036-1.78c0.573-4.549,1.202-9.09,1.778-13.638c0.545-4.312,1.049-8.63,1.567-12.946
		C162.081,88.856,162.062,88.663,162.062,88.236z"/>
</g>
<rect y="-0.715" width="31" height="192.668"/>
<rect x="173" y="-0.707" width="19.334" height="193.04"/>
<rect y="-0.715" width="192.954" height="18.716"/>
<rect x="133.276" y="174.667" width="59.058" height="17.667"/>
<g>
</g>
<g>
</g>
<g>
</g>
<g>
</g>
<g>
</g>
<g>
</g>
<g>
</g>
<g>
</g>
<g>
</g>
<g>
</g>
<g>
</g>
<g>
</g>
<g>
</g>
<g>
</g>
<g>
</g>
</svg>
