<?xml version="1.0" encoding="utf-8"?>
<!-- Generator: Adobe Illustrator 16.0.0, SVG Export Plug-In . SVG Version: 6.00 Build 0)  -->
<!DOCTYPE svg PUBLIC "-//W3C//DTD SVG 1.1//EN" "http://www.w3.org/Graphics/SVG/1.1/DTD/svg11.dtd">
<svg version="1.1" id="Layer_1" xmlns="http://www.w3.org/2000/svg" xmlns:xlink="http://www.w3.org/1999/xlink" x="0px" y="0px"
	 width="192.334px" height="192.333px" viewBox="0 0 192.334 192.333" enable-background="new 0 0 192.334 192.333"
	 xml:space="preserve">
<rect width="192.334" height="192.333"/>
<g>
	<path fill="#FFFFFF" d="M80.093,60.357c0-5.589,0.028-10.957-0.005-16.325C80.012,32.2,69.766,23.804,58.16,26.038
		c-9.103,1.752-14.855,8.623-14.869,17.92c-0.031,20.896-0.046,41.792,0.018,62.688c0.014,4.493,0.096,9.023,0.657,13.472
		c1.519,12.034,5.649,23.052,13.989,32.108c8.665,9.408,19.356,14.467,32.304,14.43c13.66-0.04,27.32,0.016,40.98-0.04
		c1.748-0.007,3.554-0.218,5.231-0.694c8.984-2.552,13.738-10.783,12.365-21.21c-1.076-8.191-8.705-14.747-17.337-14.783
		c-11.371-0.048-22.748-0.243-34.111,0.061c-8.846,0.237-15.611-5.921-16.644-13.717c-0.816-6.168-0.419-12.497-0.547-18.756
		c-0.002-0.104,0.179-0.212,0.373-0.428c0.783,0,1.663,0,2.543,0c15.875-0.001,31.75,0.004,47.624-0.009
		c1.103-0.001,2.227-0.009,3.305-0.206c10.237-1.877,15.943-9.955,14.82-21.133c-0.848-8.422-8.67-15.583-18.087-15.448
		c-16.019,0.23-32.044,0.064-48.066,0.064C81.915,60.357,81.122,60.357,80.093,60.357z"/>
	<path fill-rule="evenodd" clip-rule="evenodd" fill="#FFFFFF" d="M80.093,60.357c1.029,0,1.822,0,2.615,0
		c16.022,0,32.047,0.166,48.066-0.064c9.417-0.135,17.24,7.026,18.087,15.448c1.123,11.178-4.583,19.256-14.82,21.133
		c-1.078,0.197-2.202,0.205-3.305,0.206c-15.874,0.013-31.749,0.008-47.624,0.009c-0.881,0-1.761,0-2.543,0
		c-0.194,0.216-0.375,0.323-0.373,0.428c0.128,6.259-0.269,12.588,0.547,18.756c1.032,7.796,7.797,13.954,16.644,13.717
		c11.363-0.304,22.74-0.108,34.111-0.061c8.633,0.036,16.261,6.592,17.337,14.783c1.373,10.427-3.381,18.658-12.365,21.21
		c-1.678,0.477-3.483,0.688-5.231,0.694c-13.66,0.056-27.32,0-40.98,0.04c-12.948,0.037-23.64-5.021-32.304-14.43
		c-8.34-9.057-12.471-20.074-13.989-32.108c-0.561-4.448-0.643-8.979-0.657-13.472c-0.064-20.896-0.049-41.791-0.018-62.688
		c0.014-9.297,5.767-16.168,14.869-17.92c11.606-2.234,21.852,6.162,21.927,17.994C80.121,49.4,80.093,54.768,80.093,60.357z"/>
</g>
<g>
</g>
<g>
</g>
<g>
</g>
<g>
</g>
<g>
</g>
<g>
</g>
<g>
</g>
<g>
</g>
<g>
</g>
<g>
</g>
<g>
</g>
<g>
</g>
<g>
</g>
<g>
</g>
<g>
</g>
</svg>
